<?xml version="1.0" encoding="UTF-8"?>
<svg id="katman_2" data-name="katman 2" xmlns="http://www.w3.org/2000/svg" viewBox="0 0 677.08 178.58">
  <defs>
    <style>
      .cls-1 {
        fill: #04181e;
      }
    </style>
  </defs>
  <g id="Layer_1" data-name="Layer 1">
    <g>
      <g>
        <path class="cls-1" d="M168.03,91.99c-5.26,4.14-11.53,6.64-19.93,6.64-18.42,0-30.83-11.66-30.83-34.71s14.04-35.34,33.71-35.34c5.01,0,9.9.88,14.54,2.88V0h15.04v97.25h-9.65l-2.88-5.26ZM150.86,85.47c5.64,0,10.03-1.25,14.66-4.76v-35.47c-4.14-2.51-8.02-3.51-13.79-3.51-12.03,0-19.3,8.15-19.3,22.06s7.14,21.68,18.42,21.68Z"/>
        <path class="cls-1" d="M224.42,98.63c-18.42,0-33.09-9.78-33.09-35.47,0-23.56,14.54-34.59,31.33-34.59,19.93,0,29.08,13.28,29.08,37.6h-45.24c1.13,15.16,9.52,19.68,19.8,19.68,8.27,0,15.17-2.01,21.31-6.02l-2.26,13.79c-5.39,3.38-11.78,5.01-20.93,5.01ZM206.88,56.52h32.08c-1.38-10.65-6.89-15.79-15.67-15.79-7.52,0-14.66,4.39-16.42,15.79Z"/>
        <path class="cls-1" d="M290.72,98.63c-18.42,0-33.09-9.78-33.09-35.47,0-23.56,14.54-34.59,31.33-34.59,19.93,0,29.08,13.28,29.08,37.6h-45.24c1.13,15.16,9.52,19.68,19.8,19.68,8.27,0,15.16-2.01,21.31-6.02l-2.26,13.79c-5.39,3.38-11.78,5.01-20.93,5.01ZM273.17,56.52h32.08c-1.38-10.65-6.89-15.79-15.66-15.79-7.52,0-14.66,4.39-16.42,15.79Z"/>
        <path class="cls-1" d="M343.73,96.37v25.06h-15.04V30.2h9.78l2.75,5.01c5.27-4.26,11.53-6.64,19.93-6.64,18.42,0,30.96,11.66,30.96,35.09,0,21.93-13.54,35.22-34.09,35.22-5.14,0-9.9-.88-14.29-2.51ZM343.73,46.87v35.34c4.14,2.38,7.9,3.51,13.66,3.51,12.28,0,19.55-8.02,19.55-22.06s-7.14-22.06-18.42-22.06c-6.39,0-10.15,1.38-14.79,5.26Z"/>
        <path class="cls-1" d="M417.79,48.63v48.63h-15.04V30.2h11.15l3.26,5.89c5.51-4.89,11.4-7.52,18.67-7.52,15.66,0,24.81,8.27,24.81,28.7v39.98h-15.04v-37.85c0-12.66-4.89-16.42-13.03-16.42-5.14,0-9.77,1.75-14.79,5.64Z"/>
        <path class="cls-1" d="M470.8,63.79c0-20.68,12.41-35.22,32.83-35.22s32.96,13.28,32.96,35.09-12.66,35.34-33.09,35.34-32.71-13.28-32.71-35.22ZM521.56,63.54c0-14.04-7.27-22.31-17.92-22.31s-17.79,8.27-17.79,22.31c0,14.91,7.52,22.81,17.92,22.81s17.8-8.15,17.8-22.81Z"/>
        <path class="cls-1" d="M593.37,91.99c-5.26,4.14-11.53,6.64-19.93,6.64-18.42,0-30.83-11.66-30.83-34.71s14.04-35.34,33.71-35.34c5.01,0,9.9.88,14.54,2.88V0h15.04v97.25h-9.65l-2.88-5.26ZM576.2,85.47c5.64,0,10.03-1.25,14.66-4.76v-35.47c-4.13-2.51-8.02-3.51-13.79-3.51-12.03,0-19.3,8.15-19.3,22.06s7.14,21.68,18.42,21.68Z"/>
        <path class="cls-1" d="M649.76,98.63c-18.42,0-33.09-9.78-33.09-35.47,0-23.56,14.54-34.59,31.33-34.59,19.93,0,29.08,13.28,29.08,37.6h-45.24c1.13,15.16,9.52,19.68,19.8,19.68,8.27,0,15.17-2.01,21.31-6.02l-2.26,13.79c-5.39,3.38-11.78,5.01-20.93,5.01ZM632.22,56.52h32.08c-1.38-10.65-6.89-15.79-15.67-15.79-7.52,0-14.66,4.39-16.42,15.79Z"/>
      </g>
      <g>
        <path class="cls-1" d="M403.11,168.73l-.44-3.76c3.46,2.43,7.29,4.05,11.93,4.05,6.19,0,10.39-2.65,10.39-7.73,0-3.17-1.03-6.11-8.77-8.4l-.74-.22c-8.03-2.43-10.9-5.23-10.9-10.53,0-6.41,4.93-10.17,11.57-10.17,4.12,0,6.63,1.03,9.06,2.21l.44,3.39c-2.8-1.47-5.67-2.65-9.58-2.65-5.16,0-8.54,2.65-8.54,7.07,0,4.13,2.28,5.97,8.77,7.88l.74.22c9.21,2.8,10.9,6.11,10.9,11.05,0,6.93-5.16,10.83-13.41,10.83-4.27,0-8.18-1.1-11.42-3.24Z"/>
        <path class="cls-1" d="M457.7,172.05c-5.82,0-9.94-2.58-9.94-10.53v-26.22h-5.75v-2.8h5.75v-11.05h2.95v11.05h12.97v2.8h-12.97v25.71c0,5.97,1.92,8.1,7.22,8.1,1.84,0,3.98-.37,6.19-1.33l-.74,3.17c-2.28.96-3.9,1.11-5.67,1.11Z"/>
        <path class="cls-1" d="M506.61,166.82c-3.31,3.46-7.36,5.08-12.08,5.08-7.88,0-12.52-4.57-12.52-14.29v-25.12h2.95v24.24c0,9.06,3.61,12.23,10.17,12.23,4.13,0,7.66-1.62,11.49-5.38v-31.09h2.95v39.04h-2.58l-.37-4.71Z"/>
        <path class="cls-1" d="M556.78,168c-2.8,2.43-6.63,4.05-11.35,4.05-10.53,0-16.79-6.93-16.79-19.52s7.44-20.4,17.53-20.4c4.27,0,7.44.96,10.54,2.73v-20.4h2.95v57.09h-2.14l-.74-3.54ZM545.51,169.1c4.57,0,7.44-1.33,11.2-4.49v-26.59c-3.32-1.99-6.19-2.95-10.61-2.95-8.62,0-14.51,6.7-14.51,17.46,0,10.17,5.3,16.57,13.92,16.57Z"/>
        <path class="cls-1" d="M580.72,117.39h5.01v5.3h-5.01v-5.3ZM581.75,132.49h2.95v39.04h-2.95v-39.04Z"/>
        <path class="cls-1" d="M603.55,152.01c0-12.96,7.22-20.04,16.35-20.04,10.24,0,16.43,7.81,16.43,19.96s-6.41,20.11-16.43,20.11-16.35-7.81-16.35-20.04ZM633.39,152.01c0-10.83-5.38-17.09-13.48-17.09s-13.4,5.97-13.4,17.02,5.74,17.16,13.55,17.16,13.33-6.04,13.33-17.09Z"/>
        <path class="cls-1" d="M652.17,168.73l-.44-3.76c3.46,2.43,7.29,4.05,11.93,4.05,6.19,0,10.39-2.65,10.39-7.73,0-3.17-1.03-6.11-8.77-8.4l-.74-.22c-8.03-2.43-10.9-5.23-10.9-10.53,0-6.41,4.93-10.17,11.57-10.17,4.12,0,6.63,1.03,9.06,2.21l.44,3.39c-2.8-1.47-5.67-2.65-9.58-2.65-5.16,0-8.54,2.65-8.54,7.07,0,4.13,2.28,5.97,8.77,7.88l.74.22c9.21,2.8,10.9,6.11,10.9,11.05,0,6.93-5.16,10.83-13.41,10.83-4.27,0-8.18-1.1-11.42-3.24Z"/>
      </g>
      <g>
        <path class="cls-1" d="M54.55,11.96l28.8-7.05,40.77,166.62-28.8,7.05L54.55,11.96Z"/>
        <path class="cls-1" d="M0,91.84l15.38-25.35,87.44,53.06,5.3,37.9L0,91.84Z"/>
        <path class="cls-1" d="M13.69,171.53l-7.05-28.8,92.76-22.7,7.05,28.8-92.76,22.7Z"/>
      </g>
    </g>
  </g>
</svg>